External Loads File
version=1
nRows=46
nColumns=13
Range=5.000000e-03-10 seconds
endheader
time 	forceRightX 	forceRightY 	forceRightZ 	pointRightX 	pointRightY 	pointRightZ 	forceLeftX 	forceLeftY 	forceLeftZ 	pointLeftX 	pointLeftY 	pointLeftZ 		
0.005000 22.714684 125.288706 -0.000000 0.139454 0.374353 -0.141973 -101.725229 172.486045 -0.000000 0.420744 0.260956 -0.370684
0.010000 22.318983 125.171893 -0.000000 0.139494 0.374420 -0.141971 -101.839024 172.779902 -0.000000 0.420697 0.260900 -0.370699
0.015000 21.900891 125.038929 -0.000000 0.139546 0.374480 -0.141961 -101.903853 173.041343 -0.000000 0.420668 0.260828 -0.370678
0.020000 21.489625 124.874096 -0.000000 0.139589 0.374568 -0.141959 -101.903228 173.268168 -0.000000 0.420637 0.260738 -0.370677
0.025000 21.108965 124.670756 -0.000000 0.139675 0.374624 -0.141923 -101.822039 173.455495 -0.000000 0.420582 0.260589 -0.370675
0.030000 20.691394 124.450259 -0.000000 0.139724 0.374689 -0.141928 -101.748503 173.539678 -0.000000 0.420552 0.260575 -0.370699
0.035000 20.324284 124.213524 -0.000000 0.139771 0.374770 -0.141894 -101.550178 173.599777 -0.000000 0.420527 0.260487 -0.370703
0.040000 19.990909 123.978351 -0.000000 0.139848 0.374867 -0.141903 -101.269400 173.633213 -0.000000 0.420485 0.260392 -0.370708
0.045000 19.677005 123.758624 -0.000000 0.139900 0.374950 -0.141896 -100.963444 173.632471 -0.000000 0.420451 0.260278 -0.370712
0.050000 19.400566 123.555587 -0.000000 0.139971 0.375069 -0.141912 -100.629173 173.607861 -0.000000 0.420408 0.260179 -0.370720
0.055000 19.144900 123.366508 -0.000000 0.140024 0.375164 -0.141917 -100.307010 173.537255 -0.000000 0.420367 0.260068 -0.370711
0.060000 18.925177 123.180769 -0.000000 0.140086 0.375268 -0.141957 -100.007985 173.427864 -0.000000 0.420336 0.259971 -0.370712
0.065000 18.783828 122.987497 -0.000000 0.140147 0.375412 -0.141945 -99.702003 173.314698 -0.000000 0.420291 0.259836 -0.370743
0.070000 18.659570 122.793381 -0.000000 0.140204 0.375513 -0.141946 -99.478442 173.150668 -0.000000 0.420260 0.259738 -0.370731
0.075000 18.611113 122.584191 -0.000000 0.140266 0.375642 -0.141928 -99.247856 172.992412 -0.000000 0.420211 0.259605 -0.370731
0.080000 18.597796 122.359283 -0.000000 0.140314 0.375759 -0.141920 -99.077105 172.833643 -0.000000 0.420149 0.259477 -0.370734
0.085000 18.610849 122.116797 -0.000000 0.140360 0.375883 -0.141905 -98.990429 172.706667 -0.000000 0.420096 0.259348 -0.370708
0.090000 18.670410 121.855676 -0.000000 0.140428 0.376046 -0.141893 -98.958679 172.651004 -0.000000 0.420040 0.259173 -0.370723
0.095000 18.706253 121.590760 -0.000000 0.140493 0.376139 -0.141888 -99.084811 172.595489 -0.000000 0.419986 0.259037 -0.370723
0.100000 18.771190 121.322648 -0.000000 0.140561 0.376237 -0.141881 -99.301201 172.552594 -0.000000 0.419929 0.258938 -0.370732
0.105000 18.886366 121.065983 -0.000000 0.140622 0.376329 -0.141879 -99.555146 172.532520 -0.000000 0.419871 0.258818 -0.370724
0.110000 19.037870 120.844267 -0.000000 0.140699 0.376455 -0.141868 -99.800691 172.550204 -0.000000 0.419801 0.258693 -0.370729
0.115000 19.154139 120.683504 -0.000000 0.140760 0.376583 -0.141890 -100.058854 172.586904 -0.000000 0.419746 0.258579 -0.370727
0.120000 19.213724 120.591928 -0.000000 0.140830 0.376715 -0.141905 -100.293996 172.657453 -0.000000 0.419667 0.258471 -0.370744
0.125000 19.211423 120.567468 -0.000000 0.140883 0.376861 -0.141910 -100.474016 172.771293 -0.000000 0.419602 0.258328 -0.370767
0.130000 19.122395 120.607772 -0.000000 0.140945 0.376973 -0.141913 -100.629809 172.904656 -0.000000 0.419526 0.258213 -0.370765
0.135000 18.983397 120.699805 -0.000000 0.141003 0.377073 -0.141906 -100.738973 173.076276 -0.000000 0.419449 0.258100 -0.370769
0.140000 18.844406 120.826464 -0.000000 0.141081 0.377196 -0.141900 -100.773826 173.309475 -0.000000 0.419370 0.257978 -0.370762
0.145000 18.705332 120.976560 -0.000000 0.141113 0.377307 -0.141894 -100.772750 173.576241 -0.000000 0.419290 0.257860 -0.370772
0.150000 18.608131 121.134967 -0.000000 0.141175 0.377430 -0.141884 -100.712819 173.870899 -0.000000 0.419213 0.257758 -0.370790
0.155000 18.605877 121.289875 -0.000000 0.141219 0.377619 -0.141875 -100.556582 174.189774 -0.000000 0.419143 0.257636 -0.370785
0.160000 18.659393 121.444662 -0.000000 0.141274 0.377729 -0.141869 -100.379147 174.464689 -0.000000 0.419061 0.257522 -0.370790
0.165000 18.784257 121.591498 -0.000000 0.141318 0.377828 -0.141876 -100.140978 174.702878 -0.000000 0.418976 0.257411 -0.370790
0.170000 18.965333 121.724423 -0.000000 0.141339 0.377941 -0.141882 -99.837219 174.914023 -0.000000 0.418888 0.257306 -0.370801
0.175000 19.197101 121.838069 -0.000000 0.141403 0.378065 -0.141880 -99.477158 175.134408 -0.000000 0.418812 0.257181 -0.370801
0.180000 19.415438 121.944330 -0.000000 0.141434 0.378167 -0.141875 -99.174287 175.366831 -0.000000 0.418730 0.257080 -0.370798
0.185000 19.622993 122.049720 -0.000000 0.141499 0.378256 -0.141877 -98.938896 175.659673 -0.000000 0.418650 0.256956 -0.370779
0.190000 19.798743 122.160830 -0.000000 0.141560 0.378358 -0.141888 -98.804652 175.997010 -0.000000 0.418560 0.256855 -0.370780
0.195000 19.969204 122.267271 -0.000000 0.141618 0.378469 -0.141864 -98.733740 176.361158 -0.000000 0.418477 0.256722 -0.370768
0.200000 20.101206 122.360840 -0.000000 0.141674 0.378507 -0.141872 -98.772450 176.690416 -0.000000 0.418401 0.256588 -0.370759
0.205000 20.249935 122.420067 -0.000000 0.141721 0.378637 -0.141854 -98.833635 177.017945 -0.000000 0.418320 0.256475 -0.370775
0.210000 20.354082 122.446630 -0.000000 0.141763 0.378715 -0.141850 -98.989672 177.283610 -0.000000 0.418254 0.256398 -0.370767
0.215000 20.516606 122.412907 -0.000000 0.141804 0.378882 -0.141848 -99.071864 177.543670 -0.000000 0.418187 0.256262 -0.370774
0.220000 20.656983 122.321727 -0.000000 0.141841 0.378970 -0.141832 -99.181550 177.701089 -0.000000 0.418131 0.256165 -0.370782
0.225000 20.851891 122.164080 -0.000000 0.141875 0.379125 -0.141830 -99.191748 177.801324 -0.000000 0.418074 0.256088 -0.370780
0.230000 21.055762 121.973179 -0.000000 0.141929 0.379210 -0.141859 -99.145087 177.815894 -0.000000 0.418017 0.256007 -0.370800
